<svg xmlns="http://www.w3.org/2000/svg" xmlns:xlink="http://www.w3.org/1999/xlink" width="500" zoomAndPan="magnify" viewBox="0 0 375 374.999991" height="500" preserveAspectRatio="xMidYMid meet" version="1.0"><defs><g/><clipPath id="0f39631d6d"><rect x="0" width="48" y="0" height="281"/></clipPath><clipPath id="2483f8a5ca"><rect x="0" width="194" y="0" height="282"/></clipPath></defs><path fill="#3a4451" d="M 280.84375 94.148438 C 282.378906 95.683594 283.871094 97.25 285.324219 98.855469 C 286.78125 100.460938 288.195312 102.101562 289.570312 103.773438 C 290.945312 105.449219 292.277344 107.15625 293.566406 108.898438 C 294.855469 110.636719 296.105469 112.40625 297.308594 114.207031 C 298.511719 116.011719 299.671875 117.839844 300.785156 119.699219 C 301.898438 121.554688 302.964844 123.441406 303.984375 125.351562 C 305.007812 127.261719 305.980469 129.195312 306.90625 131.152344 C 307.832031 133.113281 308.710938 135.09375 309.539062 137.09375 C 310.371094 139.09375 311.148438 141.117188 311.878906 143.15625 C 312.609375 145.195312 313.289062 147.25 313.917969 149.324219 C 314.546875 151.398438 315.125 153.484375 315.648438 155.585938 C 316.175781 157.6875 316.652344 159.800781 317.074219 161.925781 C 317.496094 164.050781 317.867188 166.183594 318.183594 168.328125 C 318.503906 170.46875 318.765625 172.621094 318.980469 174.773438 C 319.191406 176.929688 319.351562 179.089844 319.457031 181.253906 C 319.5625 183.417969 319.617188 185.582031 319.617188 187.75 C 319.617188 189.917969 319.566406 192.082031 319.457031 194.246094 C 319.351562 196.410156 319.191406 198.570312 318.980469 200.722656 C 318.769531 202.878906 318.503906 205.03125 318.183594 207.171875 C 317.867188 209.316406 317.496094 211.449219 317.074219 213.574219 C 316.652344 215.699219 316.175781 217.8125 315.652344 219.914062 C 315.125 222.015625 314.546875 224.101562 313.917969 226.175781 C 313.289062 228.25 312.609375 230.304688 311.878906 232.34375 C 311.152344 234.382812 310.371094 236.40625 309.542969 238.40625 C 308.714844 240.40625 307.835938 242.386719 306.910156 244.347656 C 305.984375 246.304688 305.007812 248.238281 303.988281 250.148438 C 302.96875 252.058594 301.898438 253.945312 300.785156 255.800781 C 299.671875 257.660156 298.515625 259.492188 297.308594 261.292969 C 296.105469 263.09375 294.859375 264.863281 293.570312 266.605469 C 292.277344 268.34375 290.945312 270.050781 289.570312 271.726562 C 288.199219 273.402344 286.785156 275.039062 285.328125 276.644531 C 283.875 278.25 282.378906 279.820312 280.847656 281.351562 C 279.316406 282.882812 277.75 284.375 276.144531 285.832031 C 274.539062 287.285156 272.898438 288.699219 271.222656 290.074219 C 269.550781 291.449219 267.839844 292.78125 266.101562 294.074219 C 264.363281 295.363281 262.589844 296.609375 260.789062 297.8125 C 258.988281 299.015625 257.160156 300.175781 255.300781 301.289062 C 253.441406 302.402344 251.558594 303.472656 249.648438 304.492188 C 247.738281 305.511719 245.804688 306.488281 243.84375 307.414062 C 241.886719 308.339844 239.90625 309.21875 237.90625 310.046875 C 235.902344 310.875 233.882812 311.65625 231.84375 312.386719 C 229.804688 313.113281 227.746094 313.792969 225.675781 314.421875 C 223.601562 315.050781 221.511719 315.628906 219.414062 316.15625 C 217.3125 316.683594 215.199219 317.15625 213.074219 317.578125 C 210.949219 318.003906 208.8125 318.371094 206.671875 318.691406 C 204.527344 319.007812 202.378906 319.273438 200.222656 319.484375 C 198.066406 319.699219 195.90625 319.859375 193.742188 319.964844 C 191.578125 320.070312 189.414062 320.125 187.25 320.125 C 185.082031 320.125 182.917969 320.070312 180.753906 319.964844 C 178.589844 319.859375 176.429688 319.699219 174.273438 319.484375 C 172.117188 319.273438 169.96875 319.007812 167.824219 318.691406 C 165.683594 318.375 163.550781 318.003906 161.425781 317.582031 C 159.300781 317.15625 157.1875 316.683594 155.085938 316.15625 C 152.984375 315.628906 150.894531 315.054688 148.824219 314.425781 C 146.75 313.796875 144.695312 313.117188 142.652344 312.386719 C 140.613281 311.65625 138.59375 310.878906 136.59375 310.046875 C 134.589844 309.21875 132.609375 308.339844 130.652344 307.414062 C 128.695312 306.488281 126.757812 305.515625 124.847656 304.496094 C 122.9375 303.472656 121.054688 302.40625 119.195312 301.292969 C 117.335938 300.179688 115.507812 299.019531 113.707031 297.816406 C 111.90625 296.613281 110.136719 295.367188 108.394531 294.074219 C 106.65625 292.785156 104.949219 291.453125 103.273438 290.078125 C 101.597656 288.703125 99.957031 287.289062 98.351562 285.835938 C 96.746094 284.378906 95.179688 282.886719 93.648438 281.355469 C 92.117188 279.824219 90.621094 278.253906 89.167969 276.648438 C 87.710938 275.042969 86.296875 273.402344 84.921875 271.730469 C 83.550781 270.054688 82.214844 268.347656 80.925781 266.609375 C 79.636719 264.867188 78.386719 263.097656 77.183594 261.296875 C 75.980469 259.496094 74.824219 257.664062 73.707031 255.808594 C 72.59375 253.949219 71.527344 252.0625 70.507812 250.152344 C 69.484375 248.242188 68.511719 246.308594 67.585938 244.351562 C 66.660156 242.390625 65.78125 240.410156 64.953125 238.410156 C 64.125 236.410156 63.34375 234.386719 62.613281 232.347656 C 61.882812 230.308594 61.203125 228.253906 60.574219 226.179688 C 59.945312 224.105469 59.367188 222.019531 58.84375 219.917969 C 58.316406 217.816406 57.839844 215.703125 57.417969 213.578125 C 56.996094 211.453125 56.625 209.320312 56.308594 207.175781 C 55.992188 205.035156 55.726562 202.886719 55.511719 200.730469 C 55.300781 198.574219 55.140625 196.414062 55.035156 194.25 C 54.929688 192.085938 54.875 189.921875 54.875 187.753906 C 54.875 185.589844 54.929688 183.421875 55.035156 181.257812 C 55.140625 179.09375 55.300781 176.9375 55.511719 174.78125 C 55.722656 172.625 55.988281 170.472656 56.308594 168.332031 C 56.625 166.1875 56.996094 164.054688 57.417969 161.929688 C 57.839844 159.804688 58.316406 157.691406 58.839844 155.589844 C 59.367188 153.488281 59.945312 151.402344 60.574219 149.328125 C 61.203125 147.257812 61.882812 145.199219 62.613281 143.160156 C 63.34375 141.121094 64.121094 139.097656 64.949219 137.097656 C 65.78125 135.097656 66.65625 133.117188 67.582031 131.160156 C 68.507812 129.199219 69.484375 127.265625 70.503906 125.355469 C 71.527344 123.445312 72.59375 121.558594 73.707031 119.703125 C 74.820312 117.84375 75.980469 116.015625 77.183594 114.210938 C 78.386719 112.410156 79.632812 110.640625 80.921875 108.902344 C 82.214844 107.160156 83.546875 105.453125 84.921875 103.777344 C 86.292969 102.105469 87.710938 100.464844 89.164062 98.859375 C 90.617188 97.253906 92.113281 95.683594 93.644531 94.152344 C 95.175781 92.621094 96.746094 91.128906 98.347656 89.671875 C 99.953125 88.21875 101.59375 86.804688 103.269531 85.429688 C 104.945312 84.054688 106.652344 82.722656 108.390625 81.433594 C 110.132812 80.140625 111.902344 78.894531 113.703125 77.691406 C 115.503906 76.488281 117.332031 75.328125 119.191406 74.214844 C 121.050781 73.101562 122.933594 72.035156 124.84375 71.011719 C 126.753906 69.992188 128.691406 69.015625 130.648438 68.089844 C 132.605469 67.164062 134.585938 66.289062 136.589844 65.457031 C 138.589844 64.628906 140.609375 63.847656 142.648438 63.121094 C 144.6875 62.390625 146.746094 61.710938 148.820312 61.082031 C 150.890625 60.453125 152.980469 59.875 155.082031 59.347656 C 157.183594 58.820312 159.296875 58.347656 161.417969 57.925781 C 163.542969 57.503906 165.679688 57.132812 167.820312 56.8125 C 169.964844 56.496094 172.113281 56.230469 174.269531 56.019531 C 176.425781 55.804688 178.585938 55.648438 180.75 55.539062 C 182.914062 55.433594 185.078125 55.382812 187.242188 55.382812 C 189.410156 55.382812 191.574219 55.433594 193.738281 55.539062 C 195.902344 55.648438 198.0625 55.804688 200.21875 56.019531 C 202.375 56.230469 204.523438 56.496094 206.667969 56.8125 C 208.808594 57.132812 210.945312 57.5 213.070312 57.925781 C 215.191406 58.347656 217.304688 58.820312 219.40625 59.347656 C 221.507812 59.875 223.597656 60.453125 225.667969 61.082031 C 227.742188 61.710938 229.800781 62.386719 231.839844 63.117188 C 233.878906 63.847656 235.898438 64.628906 237.902344 65.457031 C 239.902344 66.285156 241.882812 67.164062 243.839844 68.089844 C 245.796875 69.015625 247.734375 69.988281 249.644531 71.011719 C 251.554688 72.03125 253.4375 73.097656 255.296875 74.210938 C 257.15625 75.328125 258.984375 76.484375 260.785156 77.6875 C 262.585938 78.890625 264.359375 80.140625 266.097656 81.429688 C 267.839844 82.71875 269.546875 84.050781 271.21875 85.425781 C 272.894531 86.800781 274.535156 88.214844 276.140625 89.671875 C 277.746094 91.125 279.3125 92.617188 280.84375 94.148438 Z M 280.84375 94.148438 " fill-opacity="1" fill-rule="nonzero"/><g transform="matrix(1, 0, 0, 1, 137, 47)"><g clip-path="url(#0f39631d6d)"><g fill="#ffffff" fill-opacity="1"><g transform="translate(0.877116, 221.952511)"><g><path d="M 43.796875 0 L 21.375 0 L 21.375 -170.0625 L 43.796875 -170.0625 Z M 43.796875 0 "/></g></g></g></g></g><g transform="matrix(1, 0, 0, 1, 80, 47)"><g clip-path="url(#2483f8a5ca)"><g fill="#ffffff" fill-opacity="1"><g transform="translate(1.028402, 222.791864)"><g><path d="M 151.0625 0 L 128.421875 0 L 42.453125 -131.59375 L 42.453125 0 L 19.8125 0 L 19.8125 -170.765625 L 42.453125 -170.765625 L 128.65625 -38.578125 L 128.65625 -170.765625 L 151.0625 -170.765625 Z M 151.0625 0 "/></g></g></g><g fill="#ffffff" fill-opacity="1"><g transform="translate(145.597493, 222.791864)"><g><path d="M 43.984375 0 L 21.46875 0 L 21.46875 -170.765625 L 43.984375 -170.765625 Z M 43.984375 0 "/></g></g></g></g></g></svg>