<svg xmlns="http://www.w3.org/2000/svg" xmlns:xlink="http://www.w3.org/1999/xlink" width="1200" zoomAndPan="magnify" viewBox="0 0 900 225" height="300" preserveAspectRatio="xMidYMid meet" version="1.0"><defs><g/><clipPath id="2b79637a0f"><rect x="0" width="24" y="0" height="136"/></clipPath><clipPath id="017ede5b44"><rect x="0" width="94" y="0" height="137"/></clipPath></defs><path fill="#3a4451" d="M 180.136719 67.140625 C 180.875 67.878906 181.59375 68.636719 182.296875 69.410156 C 182.996094 70.183594 183.679688 70.972656 184.339844 71.78125 C 185.003906 72.589844 185.644531 73.410156 186.265625 74.25 C 186.890625 75.089844 187.488281 75.941406 188.070312 76.808594 C 188.648438 77.675781 189.207031 78.558594 189.746094 79.453125 C 190.28125 80.351562 190.796875 81.257812 191.289062 82.179688 C 191.78125 83.101562 192.25 84.03125 192.695312 84.976562 C 193.144531 85.921875 193.566406 86.875 193.964844 87.839844 C 194.363281 88.804688 194.742188 89.777344 195.09375 90.761719 C 195.445312 91.742188 195.773438 92.734375 196.074219 93.734375 C 196.378906 94.734375 196.65625 95.738281 196.910156 96.75 C 197.164062 97.765625 197.390625 98.78125 197.597656 99.804688 C 197.800781 100.832031 197.976562 101.859375 198.132812 102.890625 C 198.285156 103.925781 198.414062 104.960938 198.515625 106 C 198.617188 107.039062 198.695312 108.078125 198.746094 109.121094 C 198.796875 110.164062 198.820312 111.207031 198.820312 112.253906 C 198.820312 113.296875 198.796875 114.339844 198.746094 115.382812 C 198.695312 116.425781 198.617188 117.464844 198.515625 118.503906 C 198.414062 119.542969 198.285156 120.578125 198.132812 121.613281 C 197.980469 122.644531 197.800781 123.675781 197.597656 124.699219 C 197.394531 125.722656 197.164062 126.742188 196.910156 127.753906 C 196.65625 128.765625 196.378906 129.773438 196.074219 130.769531 C 195.773438 131.769531 195.445312 132.761719 195.09375 133.742188 C 194.742188 134.726562 194.367188 135.699219 193.964844 136.664062 C 193.566406 137.628906 193.144531 138.585938 192.699219 139.527344 C 192.25 140.472656 191.78125 141.40625 191.289062 142.324219 C 190.796875 143.246094 190.28125 144.152344 189.746094 145.050781 C 189.210938 145.945312 188.652344 146.828125 188.070312 147.695312 C 187.492188 148.5625 186.890625 149.417969 186.269531 150.253906 C 185.644531 151.09375 185.003906 151.917969 184.34375 152.722656 C 183.679688 153.53125 182.996094 154.320312 182.296875 155.09375 C 181.59375 155.867188 180.875 156.625 180.136719 157.363281 C 179.398438 158.101562 178.644531 158.820312 177.871094 159.523438 C 177.097656 160.222656 176.304688 160.90625 175.5 161.566406 C 174.691406 162.230469 173.867188 162.871094 173.03125 163.492188 C 172.191406 164.117188 171.339844 164.714844 170.46875 165.296875 C 169.601562 165.875 168.71875 166.433594 167.824219 166.972656 C 166.929688 167.507812 166.019531 168.023438 165.101562 168.515625 C 164.179688 169.007812 163.246094 169.476562 162.304688 169.921875 C 161.359375 170.371094 160.40625 170.792969 159.441406 171.191406 C 158.476562 171.589844 157.503906 171.96875 156.519531 172.320312 C 155.535156 172.671875 154.546875 172.996094 153.546875 173.300781 C 152.546875 173.605469 151.542969 173.882812 150.527344 174.136719 C 149.515625 174.390625 148.496094 174.617188 147.472656 174.824219 C 146.449219 175.027344 145.421875 175.203125 144.386719 175.359375 C 143.355469 175.511719 142.320312 175.640625 141.28125 175.742188 C 140.242188 175.84375 139.199219 175.921875 138.160156 175.972656 C 137.117188 176.023438 136.070312 176.046875 135.027344 176.046875 C 133.984375 176.046875 132.941406 176.023438 131.898438 175.972656 C 130.855469 175.921875 129.8125 175.84375 128.773438 175.742188 C 127.734375 175.640625 126.699219 175.511719 125.667969 175.359375 C 124.632812 175.203125 123.605469 175.027344 122.582031 174.824219 C 121.558594 174.621094 120.539062 174.390625 119.527344 174.136719 C 118.515625 173.882812 117.507812 173.605469 116.507812 173.300781 C 115.511719 173 114.519531 172.671875 113.535156 172.320312 C 112.554688 171.96875 111.578125 171.59375 110.613281 171.191406 C 109.648438 170.792969 108.695312 170.371094 107.75 169.925781 C 106.808594 169.476562 105.875 169.007812 104.953125 168.515625 C 104.035156 168.023438 103.125 167.507812 102.230469 166.972656 C 101.335938 166.4375 100.453125 165.878906 99.585938 165.296875 C 98.71875 164.71875 97.863281 164.117188 97.023438 163.496094 C 96.1875 162.871094 95.363281 162.230469 94.554688 161.566406 C 93.75 160.90625 92.960938 160.222656 92.183594 159.523438 C 91.410156 158.820312 90.65625 158.101562 89.917969 157.363281 C 89.179688 156.625 88.460938 155.871094 87.757812 155.097656 C 87.058594 154.324219 86.375 153.53125 85.714844 152.726562 C 85.050781 151.917969 84.410156 151.09375 83.785156 150.257812 C 83.164062 149.417969 82.5625 148.566406 81.984375 147.695312 C 81.402344 146.828125 80.84375 145.945312 80.308594 145.050781 C 79.773438 144.15625 79.257812 143.246094 78.765625 142.328125 C 78.273438 141.40625 77.804688 140.472656 77.355469 139.53125 C 76.910156 138.585938 76.488281 137.632812 76.089844 136.667969 C 75.6875 135.703125 75.3125 134.730469 74.960938 133.746094 C 74.609375 132.761719 74.28125 131.773438 73.980469 130.773438 C 73.675781 129.773438 73.398438 128.769531 73.144531 127.753906 C 72.890625 126.742188 72.660156 125.722656 72.457031 124.699219 C 72.253906 123.675781 72.074219 122.648438 71.921875 121.613281 C 71.769531 120.582031 71.640625 119.546875 71.539062 118.507812 C 71.4375 117.46875 71.359375 116.425781 71.308594 115.382812 C 71.257812 114.34375 71.230469 113.296875 71.230469 112.253906 C 71.230469 111.210938 71.257812 110.167969 71.308594 109.125 C 71.359375 108.082031 71.4375 107.039062 71.539062 106 C 71.640625 104.960938 71.769531 103.925781 71.921875 102.894531 C 72.074219 101.859375 72.253906 100.832031 72.457031 99.808594 C 72.660156 98.785156 72.890625 97.765625 73.144531 96.753906 C 73.398438 95.742188 73.675781 94.734375 73.976562 93.734375 C 74.28125 92.738281 74.609375 91.746094 74.960938 90.761719 C 75.3125 89.777344 75.6875 88.804688 76.085938 87.839844 C 76.488281 86.875 76.910156 85.921875 77.355469 84.976562 C 77.800781 84.035156 78.273438 83.101562 78.765625 82.179688 C 79.257812 81.261719 79.769531 80.351562 80.308594 79.457031 C 80.84375 78.5625 81.402344 77.679688 81.984375 76.8125 C 82.5625 75.941406 83.164062 75.089844 83.785156 74.25 C 84.40625 73.414062 85.050781 72.589844 85.710938 71.78125 C 86.375 70.976562 87.054688 70.183594 87.757812 69.410156 C 88.457031 68.636719 89.179688 67.882812 89.917969 67.144531 C 90.652344 66.40625 91.410156 65.6875 92.183594 64.984375 C 92.957031 64.285156 93.746094 63.601562 94.554688 62.941406 C 95.363281 62.277344 96.183594 61.636719 97.023438 61.011719 C 97.863281 60.390625 98.714844 59.789062 99.582031 59.210938 C 100.453125 58.628906 101.332031 58.070312 102.230469 57.535156 C 103.125 57 104.03125 56.484375 104.953125 55.992188 C 105.875 55.5 106.804688 55.03125 107.75 54.582031 C 108.695312 54.136719 109.648438 53.714844 110.613281 53.316406 C 111.578125 52.914062 112.550781 52.539062 113.535156 52.1875 C 114.515625 51.835938 115.507812 51.507812 116.507812 51.207031 C 117.507812 50.902344 118.511719 50.625 119.523438 50.371094 C 120.539062 50.117188 121.554688 49.886719 122.578125 49.683594 C 123.605469 49.480469 124.632812 49.300781 125.664062 49.148438 C 126.699219 48.996094 127.734375 48.867188 128.773438 48.765625 C 129.8125 48.664062 130.851562 48.585938 131.894531 48.535156 C 132.9375 48.484375 133.980469 48.457031 135.027344 48.457031 C 136.070312 48.457031 137.113281 48.484375 138.15625 48.535156 C 139.199219 48.585938 140.238281 48.664062 141.277344 48.765625 C 142.316406 48.867188 143.355469 48.996094 144.386719 49.148438 C 145.417969 49.300781 146.449219 49.480469 147.472656 49.683594 C 148.496094 49.886719 149.515625 50.117188 150.527344 50.371094 C 151.539062 50.625 152.546875 50.902344 153.542969 51.203125 C 154.542969 51.507812 155.535156 51.835938 156.519531 52.1875 C 157.5 52.539062 158.472656 52.914062 159.4375 53.3125 C 160.402344 53.714844 161.359375 54.136719 162.300781 54.582031 C 163.246094 55.027344 164.179688 55.5 165.097656 55.992188 C 166.019531 56.484375 166.925781 56.996094 167.824219 57.535156 C 168.71875 58.070312 169.601562 58.628906 170.46875 59.207031 C 171.335938 59.789062 172.191406 60.390625 173.027344 61.011719 C 173.867188 61.632812 174.691406 62.277344 175.496094 62.9375 C 176.304688 63.601562 177.09375 64.28125 177.867188 64.984375 C 178.640625 65.683594 179.398438 66.402344 180.136719 67.140625 Z M 180.136719 67.140625 " fill-opacity="1" fill-rule="nonzero"/><g transform="matrix(1, 0, 0, 1, 110, 44)"><g clip-path="url(#2b79637a0f)"><g fill="#ffffff" fill-opacity="1"><g transform="translate(1.235375, 107.390083)"><g><path d="M 21.109375 0 L 10.296875 0 L 10.296875 -81.953125 L 21.109375 -81.953125 Z M 21.109375 0 "/></g></g></g></g></g><g transform="matrix(1, 0, 0, 1, 83, 44)"><g clip-path="url(#017ede5b44)"><g fill="#ffffff" fill-opacity="1"><g transform="translate(0.836947, 107.794617)"><g><path d="M 72.8125 0 L 61.890625 0 L 20.46875 -63.421875 L 20.46875 0 L 9.546875 0 L 9.546875 -82.296875 L 20.46875 -82.296875 L 62.015625 -18.59375 L 62.015625 -82.296875 L 72.8125 -82.296875 Z M 72.8125 0 "/></g></g></g><g fill="#ffffff" fill-opacity="1"><g transform="translate(70.51248, 107.794617)"><g><path d="M 21.203125 0 L 10.34375 0 L 10.34375 -82.296875 L 21.203125 -82.296875 Z M 21.203125 0 "/></g></g></g></g></g><g fill="#3a4451" fill-opacity="1"><g transform="translate(814.560319, 69.706121)"><g><path d="M 10.3125 -11.8125 L 6.40625 -11.8125 L 6.40625 0 L 4.765625 0 L 4.765625 -11.8125 L 0.859375 -11.8125 L 0.859375 -13.296875 L 10.3125 -13.296875 Z M 10.3125 -11.8125 "/></g></g></g><g fill="#3a4451" fill-opacity="1"><g transform="translate(825.008064, 69.706121)"><g><path d="M 1.421875 -13.296875 L 3.84375 -13.296875 L 7.796875 -3.109375 L 7.84375 -3.109375 L 11.796875 -13.296875 L 14.21875 -13.296875 L 14.21875 0 L 12.59375 0 L 12.59375 -10.765625 L 12.515625 -10.765625 L 8.390625 0 L 7.21875 0 L 3.109375 -10.765625 L 3.046875 -10.765625 L 3.046875 0 L 1.421875 0 Z M 1.421875 -13.296875 "/></g></g></g><g fill="#3eb5aa" fill-opacity="1"><g transform="translate(211.961814, 165.301504)"><g><path d="M 92.21875 0 L 92.21875 -6.109375 L 92.71875 -6.109375 C 94.28125 -6.109375 95.6875 -6.210938 96.9375 -6.421875 C 98.195312 -6.640625 99.265625 -7.066406 100.140625 -7.703125 C 101.023438 -8.347656 101.726562 -9.273438 102.25 -10.484375 C 102.769531 -11.691406 103.078125 -13.289062 103.171875 -15.28125 L 103.171875 -93 L 69.84375 0 L 61.953125 0 L 28.203125 -92.71875 L 28.203125 -16.5625 C 28.203125 -14.28125 28.4375 -12.453125 28.90625 -11.078125 C 29.382812 -9.710938 30.085938 -8.660156 31.015625 -7.921875 C 31.941406 -7.191406 33.054688 -6.707031 34.359375 -6.46875 C 35.660156 -6.226562 37.113281 -6.109375 38.71875 -6.109375 L 39.15625 -6.109375 L 39.15625 0 L 5.546875 0 L 5.546875 -6.109375 L 7.390625 -6.109375 C 9.003906 -6.109375 10.53125 -6.210938 11.96875 -6.421875 C 13.414062 -6.640625 14.679688 -7.078125 15.765625 -7.734375 C 16.859375 -8.398438 17.722656 -9.382812 18.359375 -10.6875 C 19.003906 -11.988281 19.328125 -13.707031 19.328125 -15.84375 L 19.328125 -87.890625 C 19.328125 -90.023438 19.003906 -91.742188 18.359375 -93.046875 C 17.722656 -94.347656 16.859375 -95.351562 15.765625 -96.0625 C 14.679688 -96.769531 13.414062 -97.226562 11.96875 -97.4375 C 10.53125 -97.65625 9.003906 -97.765625 7.390625 -97.765625 L 5.546875 -97.765625 L 5.546875 -103.875 L 38.71875 -103.875 L 68.84375 -20.671875 L 98.6875 -103.875 L 130.953125 -103.875 L 130.953125 -97.765625 L 129.109375 -97.765625 C 127.441406 -97.765625 125.882812 -97.644531 124.4375 -97.40625 C 123 -97.175781 121.734375 -96.691406 120.640625 -95.953125 C 119.554688 -95.222656 118.707031 -94.171875 118.09375 -92.796875 C 117.476562 -91.421875 117.171875 -89.597656 117.171875 -87.328125 L 117.171875 -16.5625 C 117.171875 -14.28125 117.476562 -12.453125 118.09375 -11.078125 C 118.707031 -9.710938 119.554688 -8.660156 120.640625 -7.921875 C 121.734375 -7.191406 123 -6.707031 124.4375 -6.46875 C 125.882812 -6.226562 127.441406 -6.109375 129.109375 -6.109375 L 130.953125 -6.109375 L 130.953125 0 Z M 92.21875 0 "/></g></g></g><g fill="#3a4451" fill-opacity="1"><g transform="translate(336.965715, 165.301504)"><g><path d="M 21.390625 -21.109375 C 21.390625 -16.554688 22.347656 -13.15625 24.265625 -10.90625 C 26.179688 -8.65625 29.15625 -7.53125 33.1875 -7.53125 C 36.125 -7.53125 38.785156 -8.003906 41.171875 -8.953125 C 43.566406 -9.898438 45.601562 -11.25 47.28125 -13 C 48.96875 -14.75 50.257812 -16.878906 51.15625 -19.390625 C 52.0625 -21.898438 52.515625 -24.695312 52.515625 -27.78125 L 52.515625 -39.578125 L 43.203125 -39.15625 C 39.078125 -38.957031 35.628906 -38.441406 32.859375 -37.609375 C 30.085938 -36.785156 27.847656 -35.628906 26.140625 -34.140625 C 24.441406 -32.648438 23.222656 -30.8125 22.484375 -28.625 C 21.753906 -26.445312 21.390625 -23.941406 21.390625 -21.109375 Z M 39.015625 -72.1875 C 36.210938 -72.1875 33.945312 -71.796875 32.21875 -71.015625 C 30.488281 -70.234375 29.140625 -69.128906 28.171875 -67.703125 C 27.203125 -66.285156 26.550781 -64.601562 26.21875 -62.65625 C 25.882812 -60.71875 25.71875 -58.613281 25.71875 -56.34375 C 21.695312 -56.34375 18.628906 -57.03125 16.515625 -58.40625 C 14.410156 -59.78125 13.359375 -62.148438 13.359375 -65.515625 C 13.359375 -68.023438 14.046875 -70.15625 15.421875 -71.90625 C 16.796875 -73.65625 18.675781 -75.085938 21.0625 -76.203125 C 23.457031 -77.316406 26.238281 -78.132812 29.40625 -78.65625 C 32.582031 -79.175781 35.972656 -79.4375 39.578125 -79.4375 C 44.023438 -79.4375 47.90625 -79 51.21875 -78.125 C 54.539062 -77.25 57.3125 -75.816406 59.53125 -73.828125 C 61.757812 -71.835938 63.429688 -69.242188 64.546875 -66.046875 C 65.660156 -62.847656 66.21875 -58.925781 66.21875 -54.28125 L 66.21875 -16.5625 C 66.21875 -14.519531 66.382812 -12.832031 66.71875 -11.5 C 67.050781 -10.175781 67.570312 -9.113281 68.28125 -8.3125 C 68.988281 -7.507812 69.921875 -6.941406 71.078125 -6.609375 C 72.242188 -6.273438 73.632812 -6.109375 75.25 -6.109375 L 75.671875 -6.109375 L 75.671875 0 L 55.984375 0 L 53.71875 -12.5 L 52.515625 -12.5 C 50.992188 -10.46875 49.519531 -8.597656 48.09375 -6.890625 C 46.675781 -5.179688 45.113281 -3.710938 43.40625 -2.484375 C 41.707031 -1.253906 39.78125 -0.296875 37.625 0.390625 C 35.46875 1.078125 32.875 1.421875 29.84375 1.421875 C 26.625 1.421875 23.628906 0.957031 20.859375 0.03125 C 18.085938 -0.882812 15.691406 -2.300781 13.671875 -4.21875 C 11.660156 -6.144531 10.085938 -8.5625 8.953125 -11.46875 C 7.816406 -14.382812 7.25 -17.832031 7.25 -21.8125 C 7.25 -29.53125 9.992188 -35.257812 15.484375 -39 C 20.984375 -42.75 29.296875 -44.789062 40.421875 -45.125 L 52.515625 -45.546875 L 52.515625 -54.28125 C 52.515625 -56.882812 52.367188 -59.285156 52.078125 -61.484375 C 51.796875 -63.691406 51.179688 -65.585938 50.234375 -67.171875 C 49.285156 -68.765625 47.921875 -70 46.140625 -70.875 C 44.367188 -71.75 41.992188 -72.1875 39.015625 -72.1875 Z M 39.015625 -72.1875 "/></g></g></g><g fill="#3a4451" fill-opacity="1"><g transform="translate(407.391428, 165.301504)"><g><path d="M 64.15625 -80.78125 C 65.71875 -82.582031 67.019531 -84.179688 68.0625 -85.578125 C 69.101562 -86.972656 69.921875 -88.238281 70.515625 -89.375 C 71.109375 -90.519531 71.535156 -91.515625 71.796875 -92.359375 C 72.054688 -93.210938 72.1875 -94 72.1875 -94.71875 C 72.1875 -95.945312 71.59375 -96.785156 70.40625 -97.234375 C 69.226562 -97.679688 67.429688 -97.90625 65.015625 -97.90625 L 65.015625 -103.875 L 97.203125 -103.875 L 97.203125 -97.90625 C 95.546875 -97.90625 93.945312 -97.582031 92.40625 -96.9375 C 90.863281 -96.300781 89.320312 -95.40625 87.78125 -94.25 C 86.238281 -93.09375 84.648438 -91.671875 83.015625 -89.984375 C 81.390625 -88.304688 79.628906 -86.398438 77.734375 -84.265625 L 56.625 -60.53125 L 87.328125 -17.765625 C 90.117188 -13.929688 92.804688 -11.03125 95.390625 -9.0625 C 97.972656 -7.09375 100.613281 -6.109375 103.3125 -6.109375 L 103.59375 -6.109375 L 103.59375 0 L 102.03125 0 C 97.15625 0 93.148438 -0.1875 90.015625 -0.5625 C 86.890625 -0.945312 84.257812 -1.632812 82.125 -2.625 C 80 -3.625 78.140625 -4.960938 76.546875 -6.640625 C 74.960938 -8.328125 73.273438 -10.472656 71.484375 -13.078125 L 46.390625 -49.03125 L 34.03125 -39.015625 L 34.03125 -16.5625 C 34.03125 -14.28125 34.347656 -12.453125 34.984375 -11.078125 C 35.628906 -9.710938 36.484375 -8.660156 37.546875 -7.921875 C 38.617188 -7.191406 39.890625 -6.707031 41.359375 -6.46875 C 42.828125 -6.226562 44.363281 -6.109375 45.96875 -6.109375 L 47.890625 -6.109375 L 47.890625 0 L 5.546875 0 L 5.546875 -6.109375 L 7.390625 -6.109375 C 9.003906 -6.109375 10.53125 -6.210938 11.96875 -6.421875 C 13.414062 -6.640625 14.679688 -7.078125 15.765625 -7.734375 C 16.859375 -8.398438 17.722656 -9.382812 18.359375 -10.6875 C 19.003906 -11.988281 19.328125 -13.707031 19.328125 -15.84375 L 19.328125 -87.890625 C 19.328125 -90.023438 19.003906 -91.742188 18.359375 -93.046875 C 17.722656 -94.347656 16.859375 -95.351562 15.765625 -96.0625 C 14.679688 -96.769531 13.414062 -97.226562 11.96875 -97.4375 C 10.53125 -97.65625 9.003906 -97.765625 7.390625 -97.765625 L 5.546875 -97.765625 L 5.546875 -103.875 L 47.890625 -103.875 L 47.890625 -97.765625 L 45.96875 -97.765625 C 44.363281 -97.765625 42.828125 -97.644531 41.359375 -97.40625 C 39.890625 -97.175781 38.617188 -96.691406 37.546875 -95.953125 C 36.484375 -95.222656 35.628906 -94.171875 34.984375 -92.796875 C 34.347656 -91.421875 34.03125 -89.597656 34.03125 -87.328125 L 34.03125 -46.25 Z M 64.15625 -80.78125 "/></g></g></g><g fill="#3a4451" fill-opacity="1"><g transform="translate(494.869227, 165.301504)"><g><path d="M 40 -71.625 C 34.601562 -71.625 30.445312 -69.429688 27.53125 -65.046875 C 24.613281 -60.660156 22.894531 -54.253906 22.375 -45.828125 L 55.84375 -45.828125 C 55.84375 -49.660156 55.554688 -53.164062 54.984375 -56.34375 C 54.421875 -59.519531 53.523438 -62.242188 52.296875 -64.515625 C 51.066406 -66.785156 49.441406 -68.535156 47.421875 -69.765625 C 45.410156 -71.003906 42.9375 -71.625 40 -71.625 Z M 41.78125 1.421875 C 36.519531 1.421875 31.789062 0.535156 27.59375 -1.234375 C 23.40625 -3.015625 19.863281 -5.609375 16.96875 -9.015625 C 14.082031 -12.429688 11.867188 -16.613281 10.328125 -21.5625 C 8.796875 -26.507812 8.03125 -32.132812 8.03125 -38.4375 C 8.03125 -52.03125 10.820312 -62.257812 16.40625 -69.125 C 22 -76 29.957031 -79.4375 40.28125 -79.4375 C 44.976562 -79.4375 49.195312 -78.703125 52.9375 -77.234375 C 56.675781 -75.765625 59.847656 -73.570312 62.453125 -70.65625 C 65.054688 -67.75 67.054688 -64.128906 68.453125 -59.796875 C 69.859375 -55.460938 70.5625 -50.425781 70.5625 -44.6875 L 70.5625 -38.015625 L 22.09375 -38.015625 C 22.1875 -32.710938 22.71875 -28.148438 23.6875 -24.328125 C 24.664062 -20.515625 26.066406 -17.375 27.890625 -14.90625 C 29.710938 -12.445312 31.945312 -10.640625 34.59375 -9.484375 C 37.25 -8.328125 40.304688 -7.75 43.765625 -7.75 C 46.273438 -7.75 48.609375 -8.03125 50.765625 -8.59375 C 52.921875 -9.164062 54.875 -9.925781 56.625 -10.875 C 58.382812 -11.820312 59.9375 -12.898438 61.28125 -14.109375 C 62.632812 -15.316406 63.738281 -16.582031 64.59375 -17.90625 C 65.25 -17.625 65.875 -17.03125 66.46875 -16.125 C 67.0625 -15.226562 67.359375 -14.164062 67.359375 -12.9375 C 67.359375 -11.46875 66.835938 -9.890625 65.796875 -8.203125 C 64.753906 -6.523438 63.164062 -4.972656 61.03125 -3.546875 C 58.90625 -2.128906 56.242188 -0.945312 53.046875 0 C 49.847656 0.945312 46.09375 1.421875 41.78125 1.421875 Z M 41.78125 1.421875 "/></g></g></g><g fill="#3a4451" fill-opacity="1"><g transform="translate(561.245048, 165.301504)"><g><path d="M 43.203125 -6.109375 L 43.203125 0 L 4.046875 0 L 4.046875 -6.109375 L 5.265625 -6.109375 C 6.921875 -6.109375 8.46875 -6.226562 9.90625 -6.46875 C 11.351562 -6.707031 12.609375 -7.191406 13.671875 -7.921875 C 14.742188 -8.660156 15.597656 -9.710938 16.234375 -11.078125 C 16.867188 -12.453125 17.1875 -14.28125 17.1875 -16.5625 L 17.1875 -61.953125 C 17.1875 -64.085938 16.867188 -65.804688 16.234375 -67.109375 C 15.597656 -68.410156 14.734375 -69.414062 13.640625 -70.125 C 12.554688 -70.832031 11.289062 -71.304688 9.84375 -71.546875 C 8.394531 -71.785156 6.867188 -71.90625 5.265625 -71.90625 L 4.828125 -71.90625 L 4.828125 -78.015625 L 28.34375 -78.015625 L 30.265625 -66.21875 L 30.984375 -66.21875 C 32.492188 -68.914062 34.085938 -71.128906 35.765625 -72.859375 C 37.453125 -74.585938 39.226562 -75.9375 41.09375 -76.90625 C 42.96875 -77.882812 44.957031 -78.550781 47.0625 -78.90625 C 49.175781 -79.257812 51.394531 -79.4375 53.71875 -79.4375 C 57.550781 -79.4375 60.972656 -78.878906 63.984375 -77.765625 C 66.992188 -76.648438 69.550781 -74.941406 71.65625 -72.640625 C 73.757812 -70.347656 75.367188 -67.398438 76.484375 -63.796875 C 77.597656 -60.203125 78.15625 -55.914062 78.15625 -50.9375 L 78.15625 -16.5625 C 78.15625 -14.28125 78.425781 -12.453125 78.96875 -11.078125 C 79.519531 -9.710938 80.289062 -8.660156 81.28125 -7.921875 C 82.28125 -7.191406 83.460938 -6.707031 84.828125 -6.46875 C 86.203125 -6.226562 87.695312 -6.109375 89.3125 -6.109375 L 89.8125 -6.109375 L 89.8125 0 L 64.4375 0 L 64.4375 -50.234375 C 64.4375 -53.410156 64.148438 -56.226562 63.578125 -58.6875 C 63.015625 -61.15625 62.101562 -63.238281 60.84375 -64.9375 C 59.59375 -66.644531 57.945312 -67.9375 55.90625 -68.8125 C 53.875 -69.6875 51.390625 -70.125 48.453125 -70.125 C 45.140625 -70.125 42.359375 -69.484375 40.109375 -68.203125 C 37.859375 -66.929688 36.046875 -65.203125 34.671875 -63.015625 C 33.296875 -60.835938 32.3125 -58.328125 31.71875 -55.484375 C 31.132812 -52.648438 30.84375 -49.671875 30.84375 -46.546875 L 30.84375 -15.84375 C 30.84375 -13.707031 31.160156 -11.988281 31.796875 -10.6875 C 32.429688 -9.382812 33.296875 -8.398438 34.390625 -7.734375 C 35.484375 -7.078125 36.75 -6.640625 38.1875 -6.421875 C 39.632812 -6.210938 41.164062 -6.109375 42.78125 -6.109375 Z M 43.203125 -6.109375 "/></g></g></g><g fill="#3a4451" fill-opacity="1"><g transform="translate(643.607258, 165.301504)"><g><path d="M 49.453125 -8.3125 C 51.160156 -8.3125 52.566406 -8.640625 53.671875 -9.296875 C 54.785156 -9.960938 55.707031 -10.84375 56.4375 -11.9375 C 57.175781 -13.03125 57.769531 -14.296875 58.21875 -15.734375 C 58.675781 -17.179688 59.070312 -18.6875 59.40625 -20.25 L 60.109375 -23.59375 L 66.21875 -23.59375 L 65.515625 0 L 6.109375 0 L 6.109375 -5.828125 L 48.3125 -69.703125 L 25.578125 -69.703125 C 23.679688 -69.703125 22.117188 -69.453125 20.890625 -68.953125 C 19.660156 -68.453125 18.65625 -67.703125 17.875 -66.703125 C 17.09375 -65.710938 16.453125 -64.484375 15.953125 -63.015625 C 15.453125 -61.554688 14.941406 -59.851562 14.421875 -57.90625 L 14.28125 -57.34375 L 8.171875 -57.34375 L 9.59375 -78.015625 L 65.375 -78.015625 L 65.375 -72.046875 L 23.015625 -8.3125 Z M 49.453125 -8.3125 "/></g></g></g><g fill="#3a4451" fill-opacity="1"><g transform="translate(706.501603, 165.301504)"><g><path d="M 5.265625 -6.109375 C 6.867188 -6.109375 8.394531 -6.210938 9.84375 -6.421875 C 11.289062 -6.640625 12.554688 -7.078125 13.640625 -7.734375 C 14.734375 -8.398438 15.597656 -9.382812 16.234375 -10.6875 C 16.867188 -11.988281 17.1875 -13.707031 17.1875 -15.84375 L 17.1875 -61.953125 C 17.1875 -64.085938 16.867188 -65.804688 16.234375 -67.109375 C 15.597656 -68.410156 14.734375 -69.414062 13.640625 -70.125 C 12.554688 -70.832031 11.289062 -71.304688 9.84375 -71.546875 C 8.394531 -71.785156 6.867188 -71.90625 5.265625 -71.90625 L 4.828125 -71.90625 L 4.828125 -78.015625 L 30.84375 -78.015625 L 30.84375 -16.5625 C 30.84375 -14.28125 31.160156 -12.453125 31.796875 -11.078125 C 32.429688 -9.710938 33.28125 -8.660156 34.34375 -7.921875 C 35.414062 -7.191406 36.6875 -6.707031 38.15625 -6.46875 C 39.625 -6.226562 41.164062 -6.109375 42.78125 -6.109375 L 44.6875 -6.109375 L 44.6875 0 L 3.34375 0 L 3.34375 -6.109375 Z M 15.140625 -101.609375 C 15.140625 -103.304688 15.347656 -104.722656 15.765625 -105.859375 C 16.191406 -107.003906 16.785156 -107.929688 17.546875 -108.640625 C 18.304688 -109.347656 19.179688 -109.84375 20.171875 -110.125 C 21.171875 -110.414062 22.265625 -110.5625 23.453125 -110.5625 C 24.585938 -110.5625 25.648438 -110.414062 26.640625 -110.125 C 27.640625 -109.84375 28.503906 -109.347656 29.234375 -108.640625 C 29.972656 -107.929688 30.566406 -107.003906 31.015625 -105.859375 C 31.460938 -104.722656 31.6875 -103.304688 31.6875 -101.609375 C 31.6875 -99.898438 31.460938 -98.476562 31.015625 -97.34375 C 30.566406 -96.207031 29.972656 -95.28125 29.234375 -94.5625 C 28.503906 -93.851562 27.640625 -93.34375 26.640625 -93.03125 C 25.648438 -92.726562 24.585938 -92.578125 23.453125 -92.578125 C 22.265625 -92.578125 21.171875 -92.726562 20.171875 -93.03125 C 19.179688 -93.34375 18.304688 -93.851562 17.546875 -94.5625 C 16.785156 -95.28125 16.191406 -96.207031 15.765625 -97.34375 C 15.347656 -98.476562 15.140625 -99.898438 15.140625 -101.609375 Z M 15.140625 -101.609375 "/></g></g></g><g fill="#3a4451" fill-opacity="1"><g transform="translate(741.544098, 165.301504)"><g><path d="M 40 -71.625 C 34.601562 -71.625 30.445312 -69.429688 27.53125 -65.046875 C 24.613281 -60.660156 22.894531 -54.253906 22.375 -45.828125 L 55.84375 -45.828125 C 55.84375 -49.660156 55.554688 -53.164062 54.984375 -56.34375 C 54.421875 -59.519531 53.523438 -62.242188 52.296875 -64.515625 C 51.066406 -66.785156 49.441406 -68.535156 47.421875 -69.765625 C 45.410156 -71.003906 42.9375 -71.625 40 -71.625 Z M 41.78125 1.421875 C 36.519531 1.421875 31.789062 0.535156 27.59375 -1.234375 C 23.40625 -3.015625 19.863281 -5.609375 16.96875 -9.015625 C 14.082031 -12.429688 11.867188 -16.613281 10.328125 -21.5625 C 8.796875 -26.507812 8.03125 -32.132812 8.03125 -38.4375 C 8.03125 -52.03125 10.820312 -62.257812 16.40625 -69.125 C 22 -76 29.957031 -79.4375 40.28125 -79.4375 C 44.976562 -79.4375 49.195312 -78.703125 52.9375 -77.234375 C 56.675781 -75.765625 59.847656 -73.570312 62.453125 -70.65625 C 65.054688 -67.75 67.054688 -64.128906 68.453125 -59.796875 C 69.859375 -55.460938 70.5625 -50.425781 70.5625 -44.6875 L 70.5625 -38.015625 L 22.09375 -38.015625 C 22.1875 -32.710938 22.71875 -28.148438 23.6875 -24.328125 C 24.664062 -20.515625 26.066406 -17.375 27.890625 -14.90625 C 29.710938 -12.445312 31.945312 -10.640625 34.59375 -9.484375 C 37.25 -8.328125 40.304688 -7.75 43.765625 -7.75 C 46.273438 -7.75 48.609375 -8.03125 50.765625 -8.59375 C 52.921875 -9.164062 54.875 -9.925781 56.625 -10.875 C 58.382812 -11.820312 59.9375 -12.898438 61.28125 -14.109375 C 62.632812 -15.316406 63.738281 -16.582031 64.59375 -17.90625 C 65.25 -17.625 65.875 -17.03125 66.46875 -16.125 C 67.0625 -15.226562 67.359375 -14.164062 67.359375 -12.9375 C 67.359375 -11.46875 66.835938 -9.890625 65.796875 -8.203125 C 64.753906 -6.523438 63.164062 -4.972656 61.03125 -3.546875 C 58.90625 -2.128906 56.242188 -0.945312 53.046875 0 C 49.847656 0.945312 46.09375 1.421875 41.78125 1.421875 Z M 41.78125 1.421875 "/></g></g></g><g fill="#3eb5aa" fill-opacity="1"><g transform="translate(709.168794, 72.283365)"><g><path d="M 11.6875 -8.90625 C 11.6875 -10.8125 11.925781 -12.394531 12.40625 -13.65625 C 12.882812 -14.914062 13.535156 -15.925781 14.359375 -16.6875 C 15.191406 -17.445312 16.164062 -17.992188 17.28125 -18.328125 C 18.40625 -18.660156 19.609375 -18.828125 20.890625 -18.828125 C 22.117188 -18.828125 23.289062 -18.660156 24.40625 -18.328125 C 25.53125 -17.992188 26.507812 -17.445312 27.34375 -16.6875 C 28.175781 -15.925781 28.835938 -14.914062 29.328125 -13.65625 C 29.828125 -12.394531 30.078125 -10.8125 30.078125 -8.90625 C 30.078125 -7.050781 29.828125 -5.484375 29.328125 -4.203125 C 28.835938 -2.921875 28.175781 -1.898438 27.34375 -1.140625 C 26.507812 -0.378906 25.53125 0.164062 24.40625 0.5 C 23.289062 0.832031 22.117188 1 20.890625 1 C 19.609375 1 18.40625 0.832031 17.28125 0.5 C 16.164062 0.164062 15.191406 -0.378906 14.359375 -1.140625 C 13.535156 -1.898438 12.882812 -2.921875 12.40625 -4.203125 C 11.925781 -5.484375 11.6875 -7.050781 11.6875 -8.90625 Z M 11.6875 -8.90625 "/></g></g></g></svg>